<svg width="512" height="512" viewBox="0 0 512 512" fill="none" xmlns="http://www.w3.org/2000/svg" role="img" aria-label="RestoPoint">
  <defs>
    <linearGradient id="rpGrad" x1="0%" y1="0%" x2="100%" y2="100%">
      <stop offset="0%" stop-color="#FFA600"/>
      <stop offset="100%" stop-color="#FF6A00"/>
    </linearGradient>
  </defs>

  <!-- Cuadro de marca -->
  <rect x="32" y="32" width="448" height="448" rx="112" fill="#FFFFFF"/>

  <!-- Pin de ubicación -->
  <path d="M256 72 C182 72 122 132 122 206 C122 302 256 424 256 424 C256 424 390 302 390 206 C390 132 330 72 256 72 Z" fill="url(#rpGrad)"/>

  <!-- Tenedor -->
  <rect x="228" y="176" width="8" height="54" rx="4" fill="#FFFFFF"/>
  <rect x="240" y="176" width="8" height="54" rx="4" fill="#FFFFFF"/>
  <rect x="252" y="176" width="8" height="54" rx="4" fill="#FFFFFF"/>
  <path d="M225 230 L255 230 L240 248 Z" fill="#FFFFFF"/>
  <rect x="233" y="246" width="14" height="66" rx="7" fill="#FFFFFF"/>

  <!-- Cuchara -->
  <ellipse cx="292" cy="202" rx="20" ry="28" fill="#FFFFFF"/>
  <rect x="285" y="228" width="14" height="84" rx="7" fill="#FFFFFF"/>
</svg>
