<svg width="512" height="512" viewBox="0 0 512 512" fill="none" xmlns="http://www.w3.org/2000/svg" role="img" aria-label="RestoPoint">
  <defs>
    <linearGradient id="rpGrad" x1="20%" y1="0%" x2="80%" y2="100%">
      <stop offset="0%"   stop-color="#FFB347"/>
      <stop offset="40%"  stop-color="#F97316"/>
      <stop offset="100%" stop-color="#C2410C"/>
    </linearGradient>
    <radialGradient id="rpGlow" cx="30%" cy="20%" r="50%">
      <stop offset="0%"   stop-color="#FFFFFF" stop-opacity="0.40"/>
      <stop offset="70%"  stop-color="#FFFFFF" stop-opacity="0.05"/>
      <stop offset="100%" stop-color="#FFFFFF" stop-opacity="0"/>
    </radialGradient>
    <filter id="rpShadow" x="-30%" y="-15%" width="160%" height="145%">
      <feDropShadow dx="0" dy="14" stdDeviation="18" flood-color="#7C2D12" flood-opacity="0.50"/>
    </filter>
  </defs>

  <!-- Pin body — fondo transparente, sin rect blanco -->
  <g filter="url(#rpShadow)">
    <path
      d="M256 28 C152 28 72 108 72 208 C72 290 150 368 212 432 C232 454 248 470 256 480 C264 470 280 454 300 432 C362 368 440 290 440 208 C440 108 360 28 256 28 Z"
      fill="url(#rpGrad)"
    />
    <path
      d="M256 28 C152 28 72 108 72 208 C72 290 150 368 212 432 C232 454 248 470 256 480 C264 470 280 454 300 432 C362 368 440 290 440 208 C440 108 360 28 256 28 Z"
      fill="url(#rpGlow)"
    />
  </g>

  <!-- Tenedor (izquierda) -->
  <rect x="206" y="122" width="9"  height="52" rx="4.5" fill="white"/>
  <rect x="221" y="122" width="9"  height="52" rx="4.5" fill="white"/>
  <rect x="236" y="122" width="9"  height="52" rx="4.5" fill="white"/>
  <path d="M204 172 Q204 194 220.5 200 Q237 194 237 172 Z" fill="white"/>
  <rect x="213" y="196" width="15" height="82" rx="7.5" fill="white"/>

  <!-- Cuchillo (derecha) -->
  <path d="M278 122 L278 175 Q278 195 292 200 L292 122 Z" fill="white"/>
  <rect x="282" y="196" width="14" height="82" rx="7" fill="white"/>
</svg>
